<svg xmlns="http://www.w3.org/2000/svg" viewBox="0 0 1440 320">
  <path fill="#d8e0f3" fill-opacity="1" d="M0,0L40,42.7C80,85,160,171,240,224C320,277,400,299,480,261.3C560,224,640,128,720,101.3C800,75,880,117,960,128C1040,139,1120,117,1200,112C1280,107,1360,117,1400,122.7L1440,128L1440,0L1400,0C1360,0,1280,0,1200,0C1120,0,1040,0,960,0C880,0,800,0,720,0C640,0,560,0,480,0C400,0,320,0,240,0C160,0,80,0,40,0L0,0Z" data-darkreader-inline-fill="" style="--darkreader-inline-fill: #007acc;"></path>
</svg>
