<svg xmlns="http://www.w3.org/2000/svg" viewBox="0 0 1440 320"><path fill="#d8e0f3" fill-opacity="1" d="M0,288L40,240C80,192,160,96,240,96C320,96,400,192,480,224C560,256,640,224,720,181.3C800,139,880,85,960,74.7C1040,64,1120,96,1200,122.7C1280,149,1360,171,1400,181.3L1440,192L1440,320L1400,320C1360,320,1280,320,1200,320C1120,320,1040,320,960,320C880,320,800,320,720,320C640,320,560,320,480,320C400,320,320,320,240,320C160,320,80,320,40,320L0,320Z" data-darkreader-inline-fill="" style="--darkreader-inline-fill: #d8e0f3;"></path></svg>